<svg width="28" height="28" viewBox="0 0 28 28" fill="none" xmlns="http://www.w3.org/2000/svg">
<circle cx="14" cy="14" r="14" fill="#F2F2F2"/>
<g clip-path="url(#clip0_489_52)">
<path d="M14 6.62225C16.403 6.62225 16.688 6.63125 17.6375 6.67475C20.0765 6.78575 21.2157 7.943 21.3267 10.364C21.3702 11.3127 21.3785 11.5978 21.3785 14.0008C21.3785 16.4045 21.3695 16.6888 21.3267 17.6375C21.215 20.0563 20.0788 21.2157 17.6375 21.3267C16.688 21.3702 16.4045 21.3792 14 21.3792C11.597 21.3792 11.312 21.3702 10.3632 21.3267C7.91825 21.215 6.785 20.0525 6.674 17.6368C6.6305 16.688 6.6215 16.4037 6.6215 14C6.6215 11.597 6.63125 11.3127 6.674 10.3632C6.78575 7.943 7.922 6.785 10.3632 6.674C11.3127 6.63125 11.597 6.62225 14 6.62225ZM14 5C11.5557 5 11.2498 5.0105 10.2898 5.054C7.02125 5.204 5.20475 7.0175 5.05475 10.289C5.0105 11.2498 5 11.5557 5 14C5 16.4443 5.0105 16.751 5.054 17.711C5.204 20.9795 7.0175 22.796 10.289 22.946C11.2498 22.9895 11.5557 23 14 23C16.4443 23 16.751 22.9895 17.711 22.946C20.9765 22.796 22.7975 20.9825 22.9452 17.711C22.9895 16.751 23 16.4443 23 14C23 11.5557 22.9895 11.2498 22.946 10.2898C22.799 7.02425 20.9832 5.20475 17.7118 5.05475C16.751 5.0105 16.4443 5 14 5ZM14 9.3785C11.4478 9.3785 9.3785 11.4478 9.3785 14C9.3785 16.5522 11.4478 18.6222 14 18.6222C16.5522 18.6222 18.6215 16.553 18.6215 14C18.6215 11.4478 16.5522 9.3785 14 9.3785ZM14 17C12.3432 17 11 15.6575 11 14C11 12.3432 12.3432 11 14 11C15.6567 11 17 12.3432 17 14C17 15.6575 15.6567 17 14 17ZM18.8045 8.11625C18.2075 8.11625 17.7238 8.6 17.7238 9.19625C17.7238 9.7925 18.2075 10.2762 18.8045 10.2762C19.4008 10.2762 19.8837 9.7925 19.8837 9.19625C19.8837 8.6 19.4008 8.11625 18.8045 8.11625Z" fill="#959595"/>
</g>
<defs>
<clipPath id="clip0_489_52">
<rect width="18" height="18" fill="white" transform="translate(5 5)"/>
</clipPath>
</defs>
</svg>
