<svg width="28" height="28" viewBox="0 0 28 28" fill="none" xmlns="http://www.w3.org/2000/svg">
<circle cx="14" cy="14" r="14" fill="#F2F2F2"/>
<g clip-path="url(#clip0_489_54)">
<path fill-rule="evenodd" clip-rule="evenodd" d="M17.7881 22.0844C18.0296 22.2554 18.3408 22.2981 18.6183 22.1931C18.8958 22.0874 19.0998 21.8504 19.1613 21.5631C19.8131 18.5001 21.3941 10.7474 21.9873 7.96111C22.0323 7.75111 21.9573 7.53286 21.7923 7.39261C21.6273 7.25236 21.3986 7.21186 21.1946 7.28761C18.0498 8.45161 8.36505 12.0854 4.40655 13.5501C4.1553 13.6431 3.9918 13.8846 4.00005 14.1494C4.00905 14.4149 4.18755 14.6451 4.4448 14.7224C6.22005 15.2534 8.5503 15.9921 8.5503 15.9921C8.5503 15.9921 9.6393 19.2809 10.2071 20.9534C10.2783 21.1634 10.4426 21.3284 10.6593 21.3854C10.8753 21.4416 11.1063 21.3824 11.2676 21.2301C12.1796 20.3691 13.5896 19.0379 13.5896 19.0379C13.5896 19.0379 16.2686 21.0021 17.7881 22.0844ZM9.53055 15.5766L10.7898 19.7301L11.0696 17.0999C11.0696 17.0999 15.9348 12.7116 18.7083 10.2104C18.7893 10.1369 18.8006 10.0139 18.7331 9.92761C18.6663 9.84136 18.5433 9.82111 18.4511 9.87961C15.2366 11.9324 9.53055 15.5766 9.53055 15.5766Z" fill="#959595"/>
</g>
<defs>
<clipPath id="clip0_489_54">
<rect width="18" height="18" fill="white" transform="translate(4 5)"/>
</clipPath>
</defs>
</svg>
