<svg width="29" height="28" viewBox="0 0 29 28" fill="none" xmlns="http://www.w3.org/2000/svg">
<circle cx="14.7014" cy="14" r="14" fill="#F2F2F2"/>
<path d="M14.9912 22.7422C19.9746 22.7422 24.0879 18.6289 24.0879 13.6543C24.0879 8.67969 19.9658 4.56641 14.9824 4.56641C10.0078 4.56641 5.90332 8.67969 5.90332 13.6543C5.90332 18.6289 10.0166 22.7422 14.9912 22.7422ZM9.7002 8.14355C10.5703 7.30859 11.6426 6.66699 12.8291 6.30664C12.2051 6.93066 11.6777 7.81836 11.2822 8.89062C10.667 8.69727 10.1309 8.44238 9.7002 8.14355ZM17.1621 6.31543C18.3486 6.67578 19.4121 7.30859 20.2822 8.15234C19.8516 8.45117 19.3242 8.69727 18.709 8.89941C18.3135 7.81836 17.7861 6.93945 17.1621 6.31543ZM12.5039 9.19824C12.9873 7.90625 13.6465 6.95703 14.376 6.61426V9.3916C13.708 9.36523 13.084 9.30371 12.5039 9.19824ZM15.6064 6.61426C16.3359 6.95703 17.0039 7.90625 17.4785 9.19824C16.9072 9.30371 16.2744 9.36523 15.6064 9.3916V6.61426ZM7.35352 13.0391C7.47656 11.5537 8.03027 10.1826 8.8916 9.05762C9.41895 9.45312 10.1133 9.7959 10.9219 10.0508C10.6934 10.9561 10.5527 11.9668 10.5088 13.0391H7.35352ZM19.4736 13.0391C19.4385 11.9668 19.2891 10.9561 19.0605 10.0508C19.8691 9.7959 20.5635 9.45312 21.0908 9.05762C21.9521 10.1826 22.5059 11.5537 22.6289 13.0391H19.4736ZM15.6064 13.0391V10.6221C16.3887 10.5957 17.1445 10.5078 17.8389 10.3672C18.041 11.1846 18.1816 12.0898 18.2168 13.0391H15.6064ZM11.7656 13.0391C11.8096 12.0898 11.9414 11.1846 12.1436 10.3672C12.8467 10.5078 13.5938 10.5957 14.376 10.6221V13.0391H11.7656ZM7.35352 14.2695H10.5088C10.5439 15.3594 10.6934 16.3789 10.9307 17.3018C10.1309 17.5566 9.43652 17.8906 8.90918 18.2773C8.03906 17.1436 7.47656 15.7637 7.35352 14.2695ZM11.7656 14.2695H14.376V16.7305C13.6025 16.7568 12.8467 16.8447 12.1523 16.9854C11.9414 16.1504 11.8096 15.2275 11.7656 14.2695ZM15.6064 16.7305V14.2695H18.2256C18.1816 15.2275 18.041 16.1504 17.8301 16.9854C17.1357 16.8447 16.3887 16.7568 15.6064 16.7305ZM19.0605 17.3018C19.2891 16.3789 19.4385 15.3594 19.4824 14.2695H22.6289C22.5059 15.7637 21.9434 17.1436 21.0732 18.2773C20.5459 17.8906 19.8604 17.5566 19.0605 17.3018ZM15.6064 17.9609C16.2744 17.9873 16.8896 18.0488 17.4697 18.1543C16.9951 19.4199 16.3359 20.3604 15.6064 20.7031V17.9609ZM12.5215 18.1543C13.0928 18.0488 13.7168 17.9873 14.376 17.9609V20.7031C13.6553 20.3604 12.9961 19.4199 12.5215 18.1543ZM9.72656 19.1826C10.1572 18.8926 10.6846 18.6465 11.291 18.4531C11.6777 19.5078 12.2051 20.3779 12.8115 20.9932C11.6426 20.6416 10.5879 20.0088 9.72656 19.1826ZM18.7002 18.4531C19.3066 18.6465 19.834 18.8926 20.2646 19.1826C19.3945 20.0088 18.3398 20.6416 17.1709 20.9932C17.7861 20.3779 18.3047 19.5078 18.7002 18.4531Z" fill="#959595"/>
</svg>
