<svg width="29" height="28" viewBox="0 0 29 28" fill="none" xmlns="http://www.w3.org/2000/svg">
<circle cx="14.7014" cy="14" r="14" fill="#F2F2F2"/>
<path d="M22.9921 9.50616C21.9521 9.50616 20.9905 9.16468 20.2211 8.59085C19.3378 7.93252 18.7003 6.9644 18.4759 5.85195C18.4189 5.57735 18.3904 5.2922 18.3869 5H15.4128V13.0301L15.4093 17.4271C15.4093 18.603 14.6328 19.5993 13.5607 19.9513C13.2473 20.0534 12.9125 20.1027 12.5634 20.0816C12.1147 20.0569 11.698 19.9231 11.3311 19.7084C10.5546 19.2507 10.0311 18.4199 10.0168 17.4659C9.99545 15.9802 11.21 14.7657 12.713 14.7657C13.0087 14.7657 13.2936 14.815 13.5607 14.8995V12.7062V11.9212C13.2794 11.8789 12.9944 11.8578 12.7024 11.8578C11.0568 11.8578 9.51818 12.5337 8.41761 13.7518C7.58773 14.6706 7.08909 15.8465 7.01073 17.0786C6.91101 18.6945 7.50937 20.2329 8.67049 21.3665C8.84146 21.532 9.01954 21.6869 9.20831 21.8312C10.202 22.5881 11.4201 23 12.7024 23C12.9909 23 13.2794 22.9789 13.5607 22.9366C14.7575 22.7606 15.8616 22.2185 16.7342 21.3665C17.8063 20.3209 18.3975 18.9304 18.4047 17.4518L18.3904 10.8827C18.8997 11.2734 19.4589 11.5938 20.0609 11.8437C20.994 12.2345 21.9842 12.4281 22.9993 12.4281V10.2947V9.50264C23.0028 9.50616 22.9921 9.50616 22.9921 9.50616Z" fill="#959595"/>
</svg>
