<svg width="34" height="34" viewBox="0 0 34 34" fill="none" xmlns="http://www.w3.org/2000/svg">
<rect width="34" height="34" rx="17" fill="#0DC94D"/>
<path d="M20.0254 26.4729C21.5635 26.4729 22.6006 26.0334 23.5498 25.0051C23.6113 24.9348 23.6816 24.8557 23.7432 24.7854C24.2529 24.2053 24.5078 23.5989 24.5078 23.0364C24.5078 22.3772 24.165 21.7795 23.374 21.2434L20.7549 19.4153C19.9287 18.844 18.9707 18.8 18.2324 19.5383L17.582 20.1887C17.3535 20.4172 17.1426 20.4348 16.8701 20.2502C16.3955 19.9338 15.499 19.1428 14.8838 18.5276C14.2598 17.9035 13.627 17.2004 13.2842 16.6643C13.0996 16.3918 13.1172 16.1809 13.3457 15.9524L13.9961 15.302C14.7344 14.5637 14.6904 13.6057 14.1191 12.7795L12.2559 10.1164C11.7285 9.36057 11.1045 9.00901 10.4453 9.00022C9.88281 8.99143 9.28516 9.24631 8.70508 9.75608C8.63477 9.8176 8.56445 9.87913 8.50293 9.94065C7.45703 10.8987 7 11.927 7 13.5266C7 16.1194 8.50293 19.178 11.4297 22.0871C14.3389 24.9787 17.3623 26.4729 20.0254 26.4729ZM17.749 16.5237C17.96 16.5237 18.1357 16.4533 18.2852 16.3039L21.8271 12.7619L23.0312 11.4436L22.8906 13.7199V14.9856C22.8906 15.3899 23.1982 15.6975 23.6025 15.7151C24.0244 15.7326 24.3672 15.4074 24.3672 14.9944V10.0461C24.3672 9.46604 24.0596 9.15842 23.4795 9.15842H18.4961C18.083 9.15842 17.7578 9.5012 17.7754 9.92307C17.793 10.3274 18.1006 10.635 18.5049 10.635H19.8057L22.0996 10.4856L20.7637 11.6897L17.2217 15.2405C17.0635 15.4074 16.9844 15.592 16.9844 15.8117C16.9844 16.216 17.3096 16.5237 17.749 16.5237ZM20.0166 25.0051C17.7754 25.0403 14.9893 23.4494 12.5459 21.0237C10.085 18.5979 8.4502 15.7063 8.48535 13.4651C8.50293 12.5246 8.83691 11.6985 9.50488 11.1184C9.56641 11.0656 9.62793 11.0217 9.68945 10.969C9.93555 10.758 10.1992 10.6438 10.4453 10.6438C10.7002 10.6438 10.9287 10.7492 11.1045 11.0129L12.7568 13.4826C12.959 13.7815 12.9678 14.1242 12.6602 14.4231L11.957 15.1174C11.2891 15.7678 11.3506 16.5324 11.7725 17.1301C12.2471 17.7893 13.1348 18.8 13.8818 19.5383C14.6816 20.3293 15.7715 21.3049 16.4043 21.7619C17.0107 22.1838 17.7666 22.2453 18.417 21.5774L19.1113 20.8742C19.4102 20.5666 19.7529 20.5754 20.0518 20.7776L22.4775 22.3948C22.75 22.5705 22.8467 22.7903 22.8467 23.0451C22.8467 23.2912 22.7412 23.5549 22.5215 23.8098C22.4688 23.8713 22.4248 23.924 22.3721 23.9944C21.792 24.6623 20.9658 24.9963 20.0166 25.0051Z" fill="white"/>
</svg>
