<svg width="28" height="28" viewBox="0 0 28 28" fill="none" xmlns="http://www.w3.org/2000/svg">
<circle cx="14" cy="14" r="14" fill="#F2F2F2"/>
<path d="M14.3438 4.51562C8.26858 4.51562 3.34375 8.39873 3.34375 13.1887C3.34375 16.2855 5.40265 19.0028 8.49979 20.5372C8.3313 21.1183 7.41703 24.2755 7.38064 24.5236C7.38064 24.5236 7.35875 24.7099 7.47943 24.781C7.60012 24.8521 7.74206 24.7969 7.74206 24.7969C8.08813 24.7485 11.7553 22.1726 12.39 21.7253C13.0241 21.8151 13.677 21.8618 14.3438 21.8618C20.4189 21.8618 25.3438 17.9788 25.3438 13.1887C25.3438 8.39873 20.4189 4.51562 14.3438 4.51562Z" fill="#959595"/>
<path d="M8.88477 16.3188C8.56162 16.3188 8.29883 16.0679 8.29883 15.7593V12.2783H7.38457C7.06748 12.2783 6.80957 12.0209 6.80957 11.7046C6.80957 11.3883 7.06758 11.1309 7.38457 11.1309H10.385C10.7021 11.1309 10.96 11.3883 10.96 11.7046C10.96 12.0209 10.702 12.2783 10.385 12.2783H9.4707V15.7593C9.4707 16.0679 9.20791 16.3188 8.88477 16.3188ZM14.0227 16.3112C13.7783 16.3112 13.5914 16.212 13.5351 16.0524L13.2449 15.2929L11.4582 15.2928L11.1679 16.0528C11.1117 16.2121 10.9249 16.3112 10.6806 16.3112C10.552 16.3114 10.425 16.2838 10.3081 16.2304C10.1466 16.1559 9.99131 15.951 10.1692 15.3983L11.5708 11.7093C11.6695 11.4287 11.9694 11.1396 12.3511 11.131C12.7338 11.1396 13.0337 11.4287 13.1326 11.7099L14.5336 15.3973C14.7119 15.9512 14.5566 16.1562 14.3951 16.2305C14.2782 16.2838 14.1512 16.3113 14.0227 16.3112ZM12.9368 14.255L12.3516 12.5924L11.7663 14.255H12.9368ZM15.4766 16.2334C15.1669 16.2334 14.915 15.9924 14.915 15.6963V11.7168C14.915 11.3937 15.1834 11.1309 15.5132 11.1309C15.843 11.1309 16.1113 11.3937 16.1113 11.7168V15.1592H17.3564C17.6661 15.1592 17.918 15.4002 17.918 15.6963C17.918 15.9924 17.6661 16.2334 17.3564 16.2334H15.4766ZM18.7318 16.3112C18.4087 16.3112 18.1459 16.0484 18.1459 15.7253V11.7168C18.1459 11.3937 18.4087 11.1309 18.7318 11.1309C19.055 11.1309 19.3178 11.3937 19.3178 11.7168V12.9762L20.9525 11.3414C21.0366 11.2573 21.1521 11.211 21.2775 11.211C21.4238 11.211 21.5707 11.2741 21.6808 11.3841C21.7834 11.4866 21.8446 11.6186 21.853 11.7556C21.8615 11.8938 21.8155 12.0204 21.7237 12.1123L20.3885 13.4474L21.8308 15.3581C21.8773 15.4194 21.9113 15.4893 21.9306 15.5639C21.9499 15.6384 21.9542 15.716 21.9433 15.7922C21.9328 15.8684 21.9073 15.9419 21.8683 16.0082C21.8293 16.0745 21.7775 16.1324 21.7159 16.1786C21.6146 16.2556 21.4907 16.2972 21.3635 16.2969C21.2727 16.2973 21.1831 16.2765 21.1018 16.236C21.0205 16.1956 20.9498 16.1366 20.8954 16.064L19.5213 14.2433L19.318 14.4466V15.725C19.3178 15.8804 19.256 16.0294 19.1461 16.1393C19.0362 16.2492 18.8872 16.311 18.7318 16.3112Z" fill="white"/>
</svg>
