<svg width="34" height="34" viewBox="0 0 34 34" fill="none" xmlns="http://www.w3.org/2000/svg">
<rect width="34" height="34" rx="17" fill="#2498FF"/>
<path d="M12.8164 27.4629C13.3174 27.4629 13.6865 27.2168 14.293 26.6807L17.3076 24.0264H22.5986C25.2441 24.0264 26.7295 22.4971 26.7295 19.8867V13.0576C26.7295 10.4473 25.2441 8.91797 22.5986 8.91797H11.3926C8.75586 8.91797 7.26172 10.4473 7.26172 13.0576V19.8867C7.26172 22.5059 8.7998 24.0264 11.3311 24.0264H11.6914V26.1797C11.6914 26.9619 12.1045 27.4629 12.8164 27.4629ZM13.2559 25.4941V22.9893C13.2559 22.4707 13.0273 22.2686 12.5352 22.2686H11.4541C9.80176 22.2686 9.01074 21.4336 9.01074 19.834V13.1104C9.01074 11.5107 9.80176 10.6758 11.4541 10.6758H22.5459C24.1895 10.6758 24.9805 11.5107 24.9805 13.1104V19.834C24.9805 21.4336 24.1895 22.2686 22.5459 22.2686H17.2109C16.6748 22.2686 16.4111 22.3564 16.042 22.7432L13.2559 25.4941ZM12.7637 17.7861C13.4844 17.7861 14.0645 17.1973 14.0645 16.4678C14.0645 15.7471 13.4844 15.1582 12.7637 15.1582C12.0342 15.1582 11.4453 15.7471 11.4453 16.4678C11.4453 17.1973 12.0342 17.7861 12.7637 17.7861ZM17 17.7861C17.7207 17.7861 18.3096 17.1973 18.3096 16.4678C18.3096 15.7471 17.7207 15.1582 17 15.1582C16.2793 15.1582 15.6904 15.7471 15.6904 16.4678C15.6904 17.1973 16.2793 17.7861 17 17.7861ZM21.2451 17.7861C21.9658 17.7861 22.5547 17.1973 22.5547 16.4678C22.5547 15.7471 21.9658 15.1582 21.2451 15.1582C20.5244 15.1582 19.9355 15.7471 19.9355 16.4678C19.9355 17.1973 20.5244 17.7861 21.2451 17.7861Z" fill="white"/>
</svg>
